<svg xmlns="http://www.w3.org/2000/svg" viewBox="0 0 24 24" width="16" height="16" fill="currentColor"><path d="M11.984 0A12 12 0 0 0 0 12a12 12 0 0 0 12 12 12 12 0 0 0 12-12A12 12 0 0 0 12 0a12 12 0 0 0-.016 0zm6.09 5.333c.328 0 .593.266.592.593v1.482a.594.594 0 0 1-.593.592H9.777c-.982 0-1.778.796-1.778 1.778v5.63c0 .327.266.592.593.592h5.63c.982 0 1.778-.796 1.778-1.778v-.296a.593.593 0 0 0-.592-.593h-4.15a.592.592 0 0 1-.592-.592v-1.482a.593.593 0 0 1 .593-.593h6.815c.327 0 .593.266.593.593v3.408a4.741 4.741 0 0 1-4.74 4.742H6.926a.593.593 0 0 1-.593-.593V9.778a4.741 4.741 0 0 1 4.74-4.74h7.002z"/></svg>
